HIERARCHY
ROOT pelvis
{
  OFFSET 0 100 0
  CHANNELS 6 Xposition Yposition Zposition Zrotation Xrotation Yrotation
  JOINT pelvis_right_femur
  {
    OFFSET -10.78128 -3.44521 -0.5502486
    CHANNELS 3 Zrotation Xrotation Yrotation
    JOINT right_femur_tibia
    {
      OFFSET -0.8047443 -44.0398 -0.1307829
      CHANNELS 3 Zrotation Xrotation Yrotation
      JOINT right_tibia_foot
      {
        OFFSET 3.006224 -47.83518 -5
        CHANNELS 3 Zrotation Xrotation Yrotation
        End Site
        {
          OFFSET 0 -5 15
        }
      }
    }
  }
  JOINT pelvis_left_femur
  {
    OFFSET 10.78128 -3.44521 -0.5502486
    CHANNELS 3 Zrotation Xrotation Yrotation
    JOINT left_femur_tibia
    {
      OFFSET 0.8047443 -44.0398 -0.1307829
      CHANNELS 3 Zrotation Xrotation Yrotation
      JOINT left_tibia_foot
      {
        OFFSET -4.370144 -48.10324 -4.275266
        CHANNELS 3 Zrotation Xrotation Yrotation
        End Site
        {
          OFFSET 0 -5 15
        }
      }
    }
  }
  JOINT pelvis_spine1
  {
    OFFSET 0 6.468898 -3.129235
    CHANNELS 3 Zrotation Xrotation Yrotation
    JOINT spine1
    {
      OFFSET 0 23.15396 4.99043
      CHANNELS 3 Zrotation Xrotation Yrotation
      JOINT spine2
      {
        OFFSET 0 20.79997 -5.064912
        CHANNELS 3 Zrotation Xrotation Yrotation
        JOINT neck
        {
          OFFSET 0 14.38658 9.616178
          CHANNELS 3 Zrotation Xrotation Yrotation
          End Site
          {
            OFFSET 0 20 0
          }
        }
      }
      JOINT right_manubrium
      {
        OFFSET -5.722621 16.35077 3.967754
        CHANNELS 3 Zrotation Xrotation Yrotation
        JOINT right_clavicle
        {
          OFFSET -13.16364 1.694482 -4.693211
          CHANNELS 3 Zrotation Xrotation Yrotation
          JOINT right_humerus
          {
            OFFSET -28.5034 -0.3100689 -2.792744
            CHANNELS 3 Zrotation Xrotation Yrotation
            JOINT right_radius
            {
              OFFSET -25.15693 0.02248979 -1.271978
              CHANNELS 3 Zrotation Xrotation Yrotation
              End Site
              {
                OFFSET -15 0 0
              }
            }
          }
        }
      }
      JOINT left_manubrium
      {
        OFFSET 5.722621 16.35077 3.967754
        CHANNELS 3 Zrotation Xrotation Yrotation
        JOINT left_clavicle
        {
          OFFSET 13.16364 1.694482 -4.693211
          CHANNELS 3 Zrotation Xrotation Yrotation
          JOINT left_humerus
          {
            OFFSET 29.39168 -1.063119 -2.237045
            CHANNELS 3 Zrotation Xrotation Yrotation
            JOINT left_radius
            {
              OFFSET 24.59957 -0.9528479 0.9047498
              CHANNELS 3 Zrotation Xrotation Yrotation
              End Site
              {
                OFFSET 15 -0 -0
              }
            }
          }
        }
      }
    }
  }
}
MOTION
Frames: 21
Frame Time: 0.0416666666667
-777.4941 104.8814 2800.573 -2.448496 -2.630416 -37.44381 4.108611 -25.54538 -0.6686619 -0 8.021722 -0 -6.173455 -0.9606463 -4.682649 -3.721375 14.61081 -8.133566 -0 25.08022 -0 -3.38931 -16.23401 11.90844 0.3815202 -2.143009 3.6873 1.026185 13.46345 -8.22358 1.847301 21.62785 4.603311 1.295591 -18.99687 6.756349 -2.022137 -19.69746 11.29394 95.76638 16.79415 -24.11531 -0 0 9.664292 -21.76329 14.02913 10.01659 4.869483 -26.11632 -8.224317 -84.80628 19.56326 13.5476 0 0 -28.69355 4.42136 12.45489 9.188887
-781.7562 104.6774 2805.553 -2.957359 -3.310365 -37.45957 4.533064 -23.35548 -0.1756836 -0 9.385584 -0 -5.935328 -0.5446575 -5.056052 -3.608333 13.34182 -7.38843 -0 32.58293 -0 -4.375773 -14.46214 11.58261 0.4757396 -2.244665 3.825606 1.008306 13.62158 -8.206102 1.826522 21.54203 4.544099 1.259729 -19.11958 6.700365 -2.14955 -20.09415 11.33575 95.77733 16.52042 -23.96564 -0 0 10.08424 -21.79067 14.07342 10.10926 4.768817 -26.16624 -8.306564 -85.13786 19.51974 14.31504 0 0 -28.53369 4.339128 12.53239 9.368235
-786.0392 104.9846 2810.513 -3.493521 -4.029732 -37.66398 5.101051 -19.68777 0.7314085 -0 11.24294 -0 -5.801625 -1.063285 -5.296321 -3.377815 10.67163 -6.937291 -0 40.94151 -0 -5.102027 -12.20274 11.83674 0.5659849 -2.325561 4.120417 0.910686 13.77854 -8.028314 1.807608 21.45114 4.458847 1.221774 -19.19795 6.612706 -2.262582 -20.70822 11.3886 95.46743 16.30922 -23.292 -0 0 11.01504 -21.99149 14.11298 10.39476 4.604049 -25.97374 -8.318882 -85.82113 19.47288 15.7123 0 0 -27.71775 4.075012 12.55961 9.74283
-790.2199 105.7557 2815.301 -3.971918 -4.618547 -38.10694 5.706262 -14.96482 1.827533 -0 12.69291 -0 -5.875558 -2.630639 -5.298226 -2.993771 6.75956 -6.773109 -0 48.69139 -0 -5.457269 -9.772463 12.61765 0.6524827 -2.386415 4.559756 0.7384327 13.93319 -7.701624 1.790497 21.35579 4.349602 1.181793 -19.23442 6.495981 -2.361824 -21.52229 11.45132 94.86669 16.14636 -22.13436 -0 0 12.41775 -22.35398 14.14645 10.85906 4.380325 -25.55659 -8.264982 -86.83611 19.40202 17.68709 0 0 -26.29523 3.641821 12.53652 10.29912
-794.2278 106.8072 2819.853 -4.316133 -4.964731 -38.78587 6.166918 -9.8038 2.765902 -0 13.1276 -0 -6.113267 -4.919623 -5.014283 -2.466473 2.049135 -6.729233 -0 53.89997 -0 -5.444973 -7.604665 13.69277 0.7415707 -2.438046 5.104997 0.5137923 14.09257 -7.272467 1.773517 21.25257 4.221115 1.137947 -19.24909 6.35718 -2.45752 -22.49288 11.52249 94.07685 15.98781 -20.64043 -0 0 14.16453 -22.82807 14.17617 11.45003 4.110439 -24.98818 -8.167962 -88.10356 19.28467 20.08992 0 0 -24.45404 3.08424 12.47693 10.99571
-798.0693 107.8685 2824.228 -4.48046 -5.046287 -39.63822 6.344943 -4.802627 3.246287 -0 12.37271 -0 -6.370566 -7.353557 -4.45647 -1.813849 -2.904772 -6.572308 -0 55.00511 -0 -5.145389 -6.074767 14.76826 0.8360109 -2.48844 5.702257 0.2651213 14.25747 -6.798326 1.755757 21.14168 4.08222 1.089752 -19.26012 6.207702 -2.555697 -23.54686 11.5981 93.2171 15.80332 -18.99776 -0 0 16.07886 -23.35134 14.20452 12.0996 3.815058 -24.35452 -8.052318 -89.50404 19.11182 22.7014 0 0 -22.43033 2.459686 12.39521 11.77419
-801.7986 108.6723 2828.562 -4.46452 -4.92159 -40.57157 6.217992 -0.2832296 3.191424 -0 10.74036 -0 -6.51601 -9.487816 -3.679807 -1.058397 -7.692723 -6.18005 -0 51.69455 -0 -4.646918 -5.317596 15.67653 0.9259244 -2.528893 6.315209 0.005455914 14.40989 -6.303394 1.739496 21.03286 3.942922 1.040657 -19.2598 6.058559 -2.644666 -24.61067 11.6722 92.3305 15.61215 -17.2945 -0 0 18.04571 -23.89815 14.2285 12.77176 3.512838 -23.68223 -7.918193 -90.94991 18.89123 25.34896 0 0 -20.33417 1.79652 12.28612 12.5957
-805.4635 109.0297 2832.972 -4.30592 -4.681604 -41.50388 5.858481 3.737186 2.757687 -0 8.820886 -0 -6.504409 -11.2081 -2.766414 -0.2502665 -12.14532 -5.612319 -0 44.96316 -0 -4.010998 -5.208604 16.43427 0.9942852 -2.540495 6.932108 -0.2680208 14.52221 -5.778625 1.728901 20.94038 3.811012 0.9962284 -19.22221 5.917136 -2.702595 -25.63264 11.73967 91.38841 15.45843 -15.51217 -0 0 20.03263 -24.47992 14.24052 13.46654 3.214578 -22.94394 -7.746535 -92.40627 18.63545 27.94771 0 0 -18.14397 1.09288 12.12926 13.44738
-809.0779 108.8611 2837.51 -4.063113 -4.413571 -42.38276 5.364371 7.343823 2.195116 -0 7.226406 -0 -6.353683 -12.58582 -1.816013 0.5250786 -16.19578 -5.028339 -0 36.44764 -0 -3.291017 -5.501714 17.13689 1.025832 -2.507374 7.541479 -0.5567325 14.57046 -5.217473 1.727662 20.87683 3.693407 0.9616524 -19.12484 5.789969 -2.710621 -26.56619 11.79672 90.36526 15.37788 -13.63532 -0 0 22.00746 -25.10538 14.23335 14.18249 2.929564 -22.11792 -7.521688 -93.83911 18.36063 30.42093 0 0 -15.84456 0.350892 11.90793 14.31354
-812.6322 108.1991 2842.175 -3.807943 -4.19961 -43.18108 4.805267 10.53276 1.720724 -0 6.527944 -0 -6.085239 -13.63137 -0.9467931 1.15236 -19.69535 -4.583591 -0 27.84723 -0 -2.573151 -5.961528 17.83578 1.009947 -2.422655 8.10743 -0.846627 14.53859 -4.643936 1.737975 20.85237 3.59975 0.9416713 -18.96 5.68697 -2.657497 -27.33987 11.83906 89.29182 15.3939 -11.74277 -0 0 23.85667 -25.74841 14.2031 14.88369 2.675751 -21.2318 -7.246045 -95.15909 18.09947 32.60926 0 0 -13.53842 -0.3916634 11.62405 15.14278
-816.1236 107.1808 2846.941 -3.62278 -4.124211 -43.88235 4.206489 13.1727 1.467966 -0 7.265239 -0 -5.694247 -14.18314 -0.2923809 1.505647 -22.36139 -4.376067 -0 20.65838 -0 -1.995141 -6.416795 18.49072 0.9409307 -2.28846 8.570014 -1.108709 14.41953 -4.111626 1.760326 20.87497 3.542418 0.9410505 -18.73494 5.620903 -2.539377 -27.8582 11.86135 88.25172 15.52725 -10.00726 -0 0 25.3864 -26.34762 14.14994 15.50009 2.481181 -20.36216 -6.940423 -96.22306 17.90615 34.27537 0 0 -11.44134 -1.059155 11.30242 15.84412
-819.5797 106.0192 2851.798 -3.580125 -4.257957 -44.46649 3.560421 15.07945 1.474288 -0 9.837483 -0 -5.15687 -13.98013 0.02899497 1.491415 -23.87973 -4.427501 -0 15.88352 -0 -1.706187 -6.783723 18.999 0.8196647 -2.113807 8.87411 -1.313541 14.21737 -3.676348 1.793351 20.94765 3.531051 0.9631046 -18.46697 5.60125 -2.359871 -28.04571 11.85932 87.33451 15.79499 -8.607579 -0 0 26.41609 -26.8363 14.0775 15.9617 2.371641 -19.59487 -6.632867 -96.90265 17.83564 35.21858 0 0 -9.771731 -1.573088 10.98069 16.32731
-823.0551 104.9518 2856.755 -3.705755 -4.6208 -44.90351 2.853439 16.10435 1.697081 -0 14.31734 -0 -4.457936 -12.8535 -0.03894208 1.086349 -24.06169 -4.706568 -0 13.73095 -0 -1.779129 -7.077962 19.27501 0.6567644 -1.913856 9.000028 -1.445603 13.95076 -3.36963 1.833583 21.06386 3.566138 1.006797 -18.18057 5.62799 -2.132421 -27.89615 11.83288 86.59688 16.19305 -7.641912 -0 0 26.87753 -27.17325 13.99256 16.23398 2.355181 -18.98685 -6.347901 -97.15619 17.90992 35.39286 0 0 -8.644345 -1.892479 10.69358 16.55278
-826.6018 104.1818 2861.825 -3.959653 -5.163867 -45.157 2.09184 16.15943 2.053088 -0 20.37968 -0 -3.614937 -10.86278 -0.4722687 0.3340825 -22.90784 -5.178176 -0 13.65007 -0 -2.158536 -7.393857 19.30863 0.4714444 -1.708236 8.963886 -1.504297 13.65022 -3.197305 1.876105 21.20797 3.639007 1.066219 -17.90432 5.692323 -1.879741 -27.47061 11.78642 86.06524 16.68779 -7.124446 -0 0 26.81679 -27.34755 13.90425 16.32034 2.420922 -18.56248 -6.104258 -97.02752 18.10935 34.90035 0 0 -8.067984 -2.019266 10.46461 16.53846
-830.2411 103.8418 2867.003 -4.255288 -5.79023 -45.19202 1.311201 15.18109 2.452677 -0 27.41713 -0 -2.681704 -8.258528 -1.192298 -0.6855795 -20.53608 -5.828037 -0 14.72934 -0 -2.697007 -7.857605 19.15178 0.2839775 -1.515646 8.792109 -1.494813 13.34701 -3.155766 1.91636 21.36278 3.738394 1.133787 -17.6637 5.783564 -1.626508 -26.84631 11.72558 85.75875 17.2325 -7.041968 -0 0 26.3138 -27.36301 13.82178 16.2381 2.552401 -18.33273 -5.916748 -96.58304 18.39624 33.87829 0 0 -8.017035 -1.972258 10.30696 16.32348
-833.9548 103.9806 2872.258 -4.493804 -6.384531 -44.98419 0.5761753 13.10333 2.816717 -0 34.66895 -0 -1.746444 -5.382612 -2.096723 -1.875594 -17.0986 -6.652758 -0 16.11677 -0 -3.222895 -8.578958 18.8752 0.1105392 -1.350779 8.501283 -1.420304 13.06589 -3.245678 1.95116 21.5151 3.85555 1.203031 -17.4774 5.894076 -1.394071 -26.07806 11.65466 85.70676 17.78299 -7.400214 -0 0 25.41814 -27.223 13.75285 15.99804 2.73848 -18.31247 -5.799126 -95.86326 18.73542 32.41372 0 0 -8.489136 -1.763159 10.22875 15.93548
-837.69 104.5612 2877.523 -4.586192 -6.821759 -44.53217 -0.01839692 9.896747 3.083515 -0 41.20247 -0 -0.9435541 -2.64221 -3.058968 -3.114042 -12.80404 -7.639888 -0 17.20863 -0 -3.574143 -9.612754 18.54966 -0.03468318 -1.227134 8.09833 -1.280832 12.82907 -3.474245 1.978071 21.65416 3.983425 1.268279 -17.3609 6.018238 -1.203329 -25.20314 11.57734 85.95382 18.29159 -8.229169 -0 0 24.14881 -26.92736 13.70408 15.60268 2.972738 -18.52638 -5.767422 -94.88459 19.0924 30.55002 0 0 -9.511369 -1.392047 10.23796 15.38667
-841.3732 105.4595 2882.708 -4.469127 -6.970928 -43.87237 -0.3554243 5.654532 3.21169 -0 45.8666 -0 -0.4598437 -0.5049041 -3.914308 -4.242779 -8.000128 -8.747611 -0 17.65959 -0 -3.613984 -10.9317 18.24118 -0.1364013 -1.159713 7.593236 -1.07777 12.66141 -3.846804 1.994705 21.76827 4.113324 1.323319 -17.32895 6.148913 -1.078263 -24.26627 11.4989 86.54486 18.69459 -9.550376 -0 0 22.53446 -26.48138 13.68145 15.05873 3.246173 -18.99894 -5.838923 -93.67172 19.42373 28.34495 0 0 -11.10224 -0.8588641 10.34157 14.6896
-844.9376 106.4742 2887.712 -4.127301 -6.726162 -43.08508 -0.3312619 0.6477045 3.174268 -0 47.4739 -0 -0.4858086 0.6162943 -4.488795 -5.086731 -3.178026 -9.879493 -0 17.35188 -0 -3.273038 -12.42326 17.98376 -0.18142 -1.161106 7.010347 -0.8190969 12.58505 -4.353706 1.999185 21.84594 4.234534 1.362126 -17.39094 6.276547 -1.039883 -23.32997 11.42682 87.48894 18.92166 -11.32702 -0 0 20.65087 -25.90666 13.68834 14.39062 3.541891 -19.73028 -6.022633 -92.28623 19.68172 25.91448 0 0 -13.21707 -0.1803941 10.53821 13.87473
-848.3581 107.3651 2892.468 -3.610195 -6.064346 -42.27816 0.08431574 -4.723807 2.944235 -0 45.28459 -0 -1.103269 0.5829352 -4.688347 -5.515751 1.181092 -10.87052 -0 16.36754 -0 -2.609286 -13.92951 17.73499 -0.1679001 -1.231698 6.386612 -0.520502 12.60354 -4.963211 1.991572 21.88232 4.339123 1.38226 -17.5418 6.39314 -1.090796 -22.45322 11.36764 88.72538 18.93514 -13.43812 -0 0 18.61766 -25.24127 13.72167 13.64105 3.838388 -20.67448 -6.30611 -90.82193 19.83735 23.41315 0 0 -15.72165 0.6018924 10.81041 12.99256
-851.6725 107.9177 2896.969 -3.019949 -5.082987 -41.5507 0.8079401 -10.06335 2.496936 -0 39.50262 -0 -2.202277 -0.3377214 -4.568776 -5.512624 4.820981 -11.52753 -0 14.98072 -0 -1.818244 -15.31013 17.37492 -0.1103509 -1.354333 5.758122 -0.2014571 12.6931 -5.628134 1.974677 21.88434 4.426729 1.387257 -17.758 6.496727 -1.20739 -21.66095 11.32296 90.13215 18.76096 -15.70924 -0 0 16.556 -24.5292 13.77077 12.85783 4.119061 -21.74443 -6.653394 -89.36912 19.89552 20.96846 0 0 -18.42421 1.432231 11.12577 12.09703
